<svg width="48" height="48" viewBox="0 0 48 48" fill="none" xmlns="http://www.w3.org/2000/svg">
<path d="M12.1715 47.8302C9.31697 47.7004 7.76628 47.2254 6.73487 46.8231C5.36821 46.291 4.39385 45.6576 3.36815 44.6333C2.34244 43.609 1.70761 42.6347 1.17835 41.268C0.776057 40.2366 0.301008 38.6859 0.171189 35.8313C0.0285315 32.7456 0 31.8198 0 24.0021C0 16.1845 0.0313847 15.2601 0.169763 12.1715C0.299581 9.31697 0.777484 7.76913 1.17693 6.73487C1.70904 5.36821 2.34386 4.39385 3.36672 3.36672C4.391 2.34244 5.36535 1.70618 6.73344 1.17693C7.76485 0.774631 9.31554 0.299581 12.1701 0.169763C15.2572 0.0285315 16.1845 0 23.9993 0C31.8169 0 32.7413 0.0313847 35.8299 0.169763C38.6845 0.299581 40.2323 0.777484 41.2666 1.17693C42.6332 1.70618 43.6076 2.34244 44.6333 3.36672C45.659 4.391 46.291 5.36678 46.8231 6.73344C47.2254 7.76485 47.7004 9.31554 47.8302 12.1701C47.9715 15.2587 48 16.1831 48 24.0007C48 31.8155 47.9715 32.7428 47.8302 35.8313C47.7004 38.6859 47.2225 40.2366 46.8231 41.268C46.291 42.6347 45.6576 43.609 44.6333 44.6333C43.609 45.6576 42.6332 46.291 41.2666 46.8231C40.2351 47.2254 38.6845 47.7004 35.8299 47.8302C32.7442 47.9715 31.8169 48 23.9993 48C16.1845 48 15.2572 47.9729 12.1715 47.8302Z" fill="url(#paint0_radial_251_217)"/>
<path d="M12.1715 47.8302C9.31697 47.7004 7.76628 47.2254 6.73487 46.8231C5.36821 46.291 4.39385 45.6576 3.36815 44.6333C2.34244 43.609 1.70761 42.6347 1.17835 41.268C0.776057 40.2366 0.301008 38.6859 0.171189 35.8313C0.0285315 32.7456 0 31.8198 0 24.0021C0 16.1845 0.0313847 15.2601 0.169763 12.1715C0.299581 9.31697 0.777484 7.76913 1.17693 6.73487C1.70904 5.36821 2.34386 4.39385 3.36672 3.36672C4.391 2.34244 5.36535 1.70618 6.73344 1.17693C7.76485 0.774631 9.31554 0.299581 12.1701 0.169763C15.2572 0.0285315 16.1845 0 23.9993 0C31.8169 0 32.7413 0.0313847 35.8299 0.169763C38.6845 0.299581 40.2323 0.777484 41.2666 1.17693C42.6332 1.70618 43.6076 2.34244 44.6333 3.36672C45.659 4.391 46.291 5.36678 46.8231 6.73344C47.2254 7.76485 47.7004 9.31554 47.8302 12.1701C47.9715 15.2587 48 16.1831 48 24.0007C48 31.8155 47.9715 32.7428 47.8302 35.8313C47.7004 38.6859 47.2225 40.2366 46.8231 41.268C46.291 42.6347 45.6576 43.609 44.6333 44.6333C43.609 45.6576 42.6332 46.291 41.2666 46.8231C40.2351 47.2254 38.6845 47.7004 35.8299 47.8302C32.7442 47.9715 31.8169 48 23.9993 48C16.1845 48 15.2572 47.9729 12.1715 47.8302Z" fill="white"/>
<path d="M18.1069 24.1027C18.1069 20.82 20.7673 18.1582 24.05 18.1582C27.3327 18.1582 29.9945 20.82 29.9945 24.1027C29.9945 27.3854 27.3327 30.0472 24.05 30.0472C20.7673 30.0472 18.1069 27.3854 18.1069 24.1027ZM14.8934 24.1027C14.8934 29.1599 18.9928 33.2593 24.05 33.2593C29.1072 33.2593 33.2066 29.1599 33.2066 24.1027C33.2066 19.0455 29.1072 14.9461 24.05 14.9461C18.9928 14.9461 14.8935 19.0452 14.8935 24.1027H14.8934ZM31.4294 14.583C31.4292 15.0062 31.5545 15.42 31.7895 15.772C32.0245 16.124 32.3586 16.3984 32.7496 16.5605C33.1405 16.7226 33.5707 16.7652 33.9859 16.6828C34.401 16.6004 34.7824 16.3967 35.0818 16.0976C35.3811 15.7985 35.5851 15.4172 35.6678 15.0022C35.7506 14.5871 35.7084 14.1569 35.5466 13.7658C35.3847 13.3747 35.1106 13.0404 34.7588 12.8051C34.407 12.5699 33.9933 12.4442 33.5701 12.444H33.5692C33.0019 12.4443 32.458 12.6697 32.0567 13.0708C31.6555 13.4718 31.4299 14.0157 31.4294 14.583ZM16.8458 38.6178C15.1072 38.5387 14.1622 38.2491 13.5343 38.0044C12.7017 37.6803 12.1077 37.2943 11.4831 36.6706C10.8586 36.0469 10.472 35.4534 10.1493 34.6209C9.90448 33.9932 9.61488 33.0479 9.53585 31.3093C9.4494 29.4297 9.43214 28.865 9.43214 24.103C9.43214 19.3409 9.45082 18.7779 9.53585 16.8966C9.61502 15.1581 9.90676 14.2147 10.1493 13.5851C10.4734 12.7526 10.8594 12.1586 11.4831 11.534C12.1068 10.9094 12.7003 10.5228 13.5343 10.2002C14.162 9.95535 15.1072 9.66576 16.8458 9.58673C18.7254 9.50028 19.2901 9.48301 24.05 9.48301C28.8099 9.48301 29.3751 9.50142 31.2563 9.58701C32.9949 9.66619 33.9383 9.95792 34.5679 10.2004C35.4004 10.5231 35.9944 10.9106 36.619 11.5343C37.2435 12.158 37.6287 12.7529 37.9528 13.5854C38.1976 14.2131 38.4872 15.1584 38.5663 16.8969C38.6527 18.7782 38.67 19.3412 38.67 24.1033C38.67 28.8653 38.6527 29.4284 38.5663 31.3096C38.4871 33.0482 38.1961 33.9932 37.9528 34.6211C37.6287 35.4537 37.2427 36.0477 36.619 36.6708C35.9953 37.294 35.4004 37.6806 34.5679 38.0047C33.9402 38.2495 32.9949 38.5391 31.2563 38.6181C29.3767 38.7046 28.812 38.7218 24.05 38.7218C19.2879 38.7218 18.7249 38.7046 16.8458 38.6181V38.6178ZM16.6981 6.3785C14.7998 6.46495 13.5026 6.76596 12.3697 7.20677C11.1972 7.66199 10.2033 8.27271 9.21087 9.26361C8.2184 10.2545 7.60926 11.2485 7.15404 12.4225C6.71322 13.556 6.41222 14.8525 6.32577 16.7508C6.23789 18.6522 6.21777 19.2601 6.21777 24.1027C6.21777 28.9454 6.23789 29.5532 6.32577 31.4546C6.41222 33.3531 6.71322 34.6494 7.15404 35.7829C7.60926 36.9554 8.21855 37.9513 9.21087 38.9418C10.2032 39.9323 11.1958 40.5421 12.3697 40.9986C13.5047 41.4395 14.7998 41.7405 16.6981 41.8269C18.6005 41.9134 19.2073 41.9349 24.05 41.9349C28.8926 41.9349 29.5005 41.9148 31.4018 41.8269C33.3003 41.7405 34.5967 41.4395 35.7302 40.9986C36.9027 40.5421 37.8966 39.9327 38.8891 38.9418C39.8816 37.9509 40.4894 36.9554 40.9459 35.7829C41.3867 34.6494 41.6892 33.3529 41.7742 31.4546C41.8607 29.5518 41.8808 28.9454 41.8808 24.1027C41.8808 19.2601 41.8607 18.6522 41.7742 16.7508C41.6878 14.8524 41.3867 13.5553 40.9459 12.4225C40.4894 11.25 39.88 10.2561 38.8891 9.26361C37.8982 8.27114 36.9027 7.66199 35.7317 7.20677C34.5967 6.76596 33.3002 6.46352 31.4033 6.3785C29.5016 6.29162 28.8941 6.27051 24.0521 6.27051C19.2102 6.27051 18.6012 6.29062 16.6988 6.3785" fill="#725FEA"/>
<defs>
<radialGradient id="paint0_radial_251_217" cx="0" cy="0" r="1" gradientUnits="userSpaceOnUse" gradientTransform="translate(3.10651 46.9485) scale(60.9422)">
<stop offset="0.09" stop-color="#FA8F21"/>
<stop offset="0.78" stop-color="#D82D7E"/>
</radialGradient>
</defs>
</svg>
