<svg width="48" height="48" viewBox="0 0 48 48" fill="none" xmlns="http://www.w3.org/2000/svg">
<path d="M0 23.04C0 12.1788 0 6.74826 3.37413 3.37413C6.74826 0 12.1788 0 23.04 0H24.96C35.8212 0 41.2517 0 44.6259 3.37413C48 6.74826 48 12.1788 48 23.04V24.96C48 35.8212 48 41.2517 44.6259 44.6259C41.2517 48 35.8212 48 24.96 48H23.04C12.1788 48 6.74826 48 3.37413 44.6259C0 41.2517 0 35.8212 0 24.96V23.04Z" fill="white"/>
<path d="M25.5405 34.5796C14.6005 34.5796 8.36059 27.0796 8.10059 14.5996H13.5806C13.7606 23.7596 17.8005 27.6396 21.0005 28.4396V14.5996H26.1607V22.4996C29.3207 22.1596 32.6403 18.5596 33.7603 14.5996H38.9204C38.0604 19.4796 34.4604 23.0796 31.9004 24.5596C34.4604 25.7596 38.5606 28.8996 40.1206 34.5796H34.4404C33.2204 30.7796 30.1807 27.8396 26.1607 27.4396V34.5796H25.5405Z" fill="#725FEA"/>
</svg>
